<svg width="279" height="57" viewBox="0 0 279 57" xmlns="http://www.w3.org/2000/svg"><g fill="none" fill-rule="evenodd"><path d="M94.144 18.122c1.403 0 2.534-1.144 2.534-2.565 0-1.42-1.13-2.564-2.534-2.564-1.403 0-2.533 1.144-2.533 2.564 0 1.42 1.13 2.565 2.533 2.565zm2.027 21.384V20.449h-4.093v19.057h4.093zm-22.164.644V28.473H87.3v-4.162H74.007v-6.949h13.571V13.2h-18.24v26.95h4.67zm43.683-.644V26.09c0-3.906-2.027-6.115-6.08-6.115-2.962 0-5.418 1.539-6.665 3.038v-2.565h-4.093v19.057h4.093V26.17c.974-1.262 2.767-2.525 4.833-2.525 2.3 0 3.82.947 3.82 3.946v11.915h4.092zm18.667.473c5.223 0 8.458-2.801 10.446-5.957l-3.898-1.973c-1.247 2.17-3.78 3.827-6.548 3.827-5.145 0-8.965-4.024-8.965-9.508 0-5.563 3.82-9.509 8.965-9.509 2.767 0 5.301 1.618 6.548 3.827l3.859-2.051c-1.91-3.157-5.184-5.88-10.407-5.88-7.678 0-13.642 5.485-13.642 13.613 0 8.088 5.964 13.611 13.642 13.611zm23.635 0c-6.002 0-9.666-4.576-9.666-10.021 0-5.484 3.664-9.982 9.666-9.982 6.003 0 9.667 4.498 9.667 9.982 0 5.445-3.664 10.021-9.667 10.021zm0-3.669c3.508 0 5.418-2.959 5.418-6.352 0-3.354-1.91-6.313-5.418-6.313-3.469 0-5.418 2.96-5.418 6.313 0 3.393 1.95 6.352 5.418 6.352zm40.753 3.196v-13.77c0-3.866-1.988-5.76-5.418-5.76-2.845 0-5.34 1.775-6.392 3.472-.624-2.052-2.339-3.472-5.145-3.472-2.885 0-5.34 1.894-6.159 3.038v-2.565h-4.092v19.057h4.092V26.17c.858-1.223 2.534-2.525 4.366-2.525 2.222 0 3.079 1.381 3.079 3.433v12.428h4.093V26.17c.818-1.262 2.533-2.525 4.365-2.525 2.222 0 3.118 1.381 3.118 3.433v12.428h4.093zm14.854.473c-2.378 0-4.482-1.104-6.041-3.117v9.903h-4.093V20.45h4.093v2.604c1.403-1.893 3.586-3.077 6.041-3.077 4.872 0 8.341 3.709 8.341 9.982s-3.469 10.021-8.34 10.021zm-1.208-3.669c3.235 0 5.34-2.643 5.34-6.352 0-3.709-2.105-6.313-5.34-6.313-1.91 0-3.898 1.105-4.833 2.525v7.536c.896 1.42 2.923 2.604 4.833 2.604zm28.981 3.196h-4.092v-2.091c-1.404 1.657-3.625 2.564-6.12 2.564-3.04 0-6.509-2.13-6.509-6.312 0-4.42 3.43-6.234 6.51-6.234 2.572 0 4.715.828 6.119 2.446v-2.84c0-2.21-1.832-3.552-4.405-3.552-2.105 0-3.975.79-5.573 2.447l-1.715-2.88c2.182-2.131 4.91-3.078 7.912-3.078 4.21 0 7.873 1.775 7.873 6.865v12.665zm-8.575-2.367c1.754 0 3.508-.671 4.483-1.973v-2.92c-.975-1.302-2.729-1.972-4.483-1.972-2.3 0-4.053 1.38-4.053 3.432 0 2.091 1.754 3.433 4.053 3.433zm17.349 2.367v-12.98c.818-1.381 3.118-2.565 4.872-2.565.507 0 .896.04 1.247.118v-4.103c-2.416 0-4.677 1.42-6.12 3.235V20.45h-4.092v19.057h4.093zm17.543.473c-5.69 0-9.86-3.985-9.86-10.021 0-5.524 3.975-9.982 9.549-9.982 5.651 0 9.237 4.34 9.237 10.337v1.026h-14.5c.312 2.84 2.417 5.247 5.964 5.247 1.871 0 4.015-.75 5.379-2.13l1.87 2.722c-1.909 1.815-4.676 2.801-7.639 2.801zm4.581-11.6c-.116-2.248-1.637-5.01-5.34-5.01-3.468 0-5.105 2.722-5.261 5.01h10.601z" fill="#393939"/><path fill="#00263F" d="M42.297 27.131l5.902-5.971L27.77.488.024 28.562l5.901 5.974 9.447-9.56 9.448 9.56 5.901-5.974-9.447-9.558 6.495-6.573 14.528 14.7"/><path fill="#00B2FF" d="M27.77 44.691L17.73 34.536H5.926l21.845 22.1 27.775-28.103-5.902-5.973L27.77 44.69"/></g></svg>